<?xml version="1.0" standalone="no"?>
<!DOCTYPE svg PUBLIC "-//W3C//DTD SVG 20010904//EN"
 "http://www.w3.org/TR/2001/REC-SVG-20010904/DTD/svg10.dtd">
<svg version="1.0" xmlns="http://www.w3.org/2000/svg"
 width="368.000000pt" height="320.000000pt" viewBox="0 0 368.000000 320.000000"
 preserveAspectRatio="xMidYMid meet">

<g transform="translate(0.000000,320.000000) scale(0.100000,-0.100000)"
fill="#000000" stroke="none">
<path d="M125 3075 c-14 -13 -25 -36 -25 -50 0 -14 11 -37 25 -50 l24 -25 327
0 c348 0 362 -2 392 -51 7 -10 115 -481 242 -1046 126 -566 232 -1038 235
-1049 4 -18 -3 -24 -40 -38 -66 -26 -139 -97 -176 -172 -27 -55 -32 -75 -32
-142 -1 -67 4 -87 30 -143 50 -105 124 -167 232 -195 151 -38 316 38 387 179
49 95 50 217 3 309 l-19 38 480 0 480 0 -19 -38 c-66 -129 -37 -294 70 -400
134 -132 344 -132 478 0 170 169 126 451 -88 555 l-56 28 -789 5 -789 5 -52
233 -52 232 761 0 c513 0 774 4 800 11 21 6 56 27 77 47 35 33 63 96 279 623
132 323 240 594 240 603 0 25 -46 66 -73 66 -14 0 -34 -8 -45 -17 -13 -11
-114 -245 -257 -592 -129 -316 -241 -578 -248 -583 -6 -4 -362 -8 -789 -8
-731 0 -777 1 -782 18 -3 9 -75 332 -161 717 -86 385 -163 727 -172 760 -14
48 -27 70 -68 112 -81 80 -97 83 -482 83 l-324 0 -24 -25z m1383 -2441 c36 -7
99 -71 118 -120 62 -161 -114 -320 -271 -244 -123 59 -150 212 -57 312 56 59
110 72 210 52z m1563 -10 c37 -19 85 -76 99 -119 25 -77 -8 -170 -79 -220 -37
-26 -51 -30 -111 -30 -60 0 -74 4 -111 30 -75 53 -106 148 -75 229 19 48 82
112 118 121 70 15 114 12 159 -11z"/>
</g>
</svg>
